{"title":"Push.2009.NORDiC.x264.AC3(5.1).mkv.Zen_Bud","uid":5726468,"size":1461931396,"categoryP":"video","categoryS":"movies","magnet":"?xt=urn:btih:6e25da8d2cd486c53800ea128bb407c22141771f&amp;dn=Push.2009.NORDiC.x264.AC3%285.1%29.mkv.Zen_Bud&amp;tr=udp%3A%2F%2Ftracker.openbittorrent.com%3A80&amp;tr=udp%3A%2F%2Fopen.demonii.com%3A1337&amp;tr=udp%3A%2F%2Ftracker.coppersurfer.tk%3A6969&amp;tr=udp%3A%2F%2Fexodus.desync.com%3A6969","seeders":0,"leechers":1,"uploader":"Zen_Bud","files":1,"time":1280477999,"description":"General\nComplete name                    : Push.2009.NORDiC.x264.AC3(5.1).mkv.Zen_Bud\nFormat                           : Matroska\nFile size                        : 1.36 GiB\nDuration                         : 1h 46mn\nOverall bit rate                 : 1 824 Kbps\nWriting application              : HandBrake 0.9.4\n\nVideo\nID                               : 1\nFormat                           : AVC\nDuration                         : 1h 46mn\nBit rate                         : 1 440 Kbps\nWidth                            : 720 pixels\nHeight                           : 436 pixels\nDisplay aspect ratio             : 2.35:1\nStream size                      : 1.05 GiB (77%)\nWriting library                  : x264 core 79\n\nAudio\n\nFormat                           : AC-3\nDuration                         : 1h 46mn\nBit rate                         : 384 Kbps\nChannel(s)                       : 6 channels\nChannel positions                : Front: L C R, Side: L R, LFE\nSampling rate                    : 48.0 KHz\nStream size                      : 294 MiB (21%)\nLanguage                         : English\n\nText #1\nLanguage                         : Swedish\n\nText #2\nLanguage                         : Danish\n\nText #3\nLanguage                         : Norwegian\n\nText #4\nLanguage                         : Finnish","torrent":{"xt":"urn:btih:6e25da8d2cd486c53800ea128bb407c22141771f","amp;dn":"Push.2009.NORDiC.x264.AC3%285.1%29.mkv.Zen_Bud","amp;tr":["udp%3A%2F%2Ftracker.openbittorrent.com%3A80","udp%3A%2F%2Fopen.demonii.com%3A1337","udp%3A%2F%2Ftracker.coppersurfer.tk%3A6969","udp%3A%2F%2Fexodus.desync.com%3A6969"],"infoHash":"6e25da8d2cd486c53800ea128bb407c22141771f","infoHashBuffer":{"type":"Buffer","data":[110,37,218,141,44,212,134,197,56,0,234,18,139,180,7,194,33,65,119,31]},"announce":[],"urlList":[]}}